<?xml version="1.0" encoding="utf-8"?>
<!-- Generator: Adobe Illustrator 25.0.1, SVG Export Plug-In . SVG Version: 6.00 Build 0)  -->
<svg version="1.1" id="Layer_1" xmlns="http://www.w3.org/2000/svg" xmlns:xlink="http://www.w3.org/1999/xlink" x="0px" y="0px"
	 viewBox="0 0 30 33" style="enable-background:new 0 0 30 33;" xml:space="preserve">
<style type="text/css">
	.st0{fill:#ECECEA;}
	.st1{font-family:'Impact';}
	.st2{font-size:3.7194px;}
</style>
<g>
	<path class="st0" d="M12.9,18.6c0.4,0.6,2,2.9,2,2.9h-3.4l-3.1-4.7v-0.5c1.2,0,2.6-0.6,2.6-2c0-1.7-2.1-2.6-3-2.6
		c-0.7,0-2.7,0-2.9,0v0.1L8,15.7v5.8H4.8v-10h3c0.5,0,6.5,0,6.5,2.8c0,1.5-1.4,2.3-4.2,2.3c-0.9,0-1.5,0-1.5,0v0.3
		c0,0,0.3-0.1,0.6-0.1c0.5,0,1.3,0.1,1.8,0.3C12,17.5,12.4,17.9,12.9,18.6z"/>
	<path class="st0" d="M21.2,17.8c-0.1,0-0.4,0-0.4,0c0.6,1,0.8,2.2,0,3c-0.6,0.7-1.5,0.7-2.6,0.7c-1.9,0-3-1.1-3-2.4
		c0-1.9,1.9-2.8,4.1-2.8c0.3,0,1.8,0,2.6,0c2.2,0,2.2-1.6-0.4-1.6c-3.2,0-5.5,1.6-5.5,1.6h-0.1c0,0,0-2,0-3.2c1.9,0,3.7,0,5,0
		c1.6,0,2.5,0.6,2.7,1.5c0.5,2.3,1.6,6.8,1.6,6.8s-2.9,0-3.1,0C21.9,20.7,21.3,18.4,21.2,17.8z M20.6,18.4c-0.8-1.1-2.1-1.8-2.8-1.8
		c-0.7,0-0.5,0.9,0.1,1.7c0.7,0.9,2,1.6,2.6,1.6S21.2,19.3,20.6,18.4z"/>
</g>
<text transform="matrix(1 0 0 1 9.5845 26.0073)" class="st0 st1 st2">STUDIO</text>
</svg>
